<svg viewBox="0 0 38 45" xmlns="http://www.w3.org/2000/svg">
  <path d="M12.184 20.824c-.001.167 0 .335-.012.502-.016.211.028.416.053.622a.534.534 0 0 0 .09.208.328.328 0 0 0 .122.11c.123.065.252.12.377.18.2.097.402.193.6.297.464.242.903.525 1.344.806.058.036.109.09.193.092.012-.02.033-.04.039-.066.033-.149.069-.299.093-.45.047-.296.08-.594.128-.89a4.964 4.964 0 0 1 .487-1.527c.128-.248.24-.504.412-.726.008-.01.01-.026.024-.062-.092-.158-.048-.325-.025-.489a.196.196 0 0 1 .182-.177c.124-.012.242-.06.37-.043.069.01.14.002.21-.007a.22.22 0 0 0 .114-.042c.13-.11.23-.243.248-.42.005-.057.007-.113.016-.168a.308.308 0 0 0-.096-.284c-.1-.097-.192-.202-.287-.304a28.247 28.247 0 0 0-2.022-1.999c-.094-.082-.19-.168-.298-.228-.272-.149-.59-.12-.777.161-.135.203-.26.413-.38.625-.12.213-.203.442-.296.667-.22.53-.408 1.068-.568 1.618-.118.41-.187.83-.27 1.246-.05.247-.07.496-.071.748m7.904-2.693a.796.796 0 0 0-.146.176c-.135.217-.12.333.06.517.175.18.362.35.524.54.23.27.448.551.665.833.49.635.854 1.338 1.112 2.096.072.211.122.427.133.653.008.16.036.318.06.477.025.17.087.196.24.114.363-.194.726-.387 1.088-.582.294-.159.584-.324.855-.523a.896.896 0 0 0 .385-.75l.008-.5h.012c-.005-.043-.008-.084-.016-.125-.06-.329-.08-.663-.137-.993a9.191 9.191 0 0 0-.193-.855c-.077-.28-.165-.56-.247-.84-.052-.174-.095-.35-.154-.52-.087-.25-.188-.496-.276-.746a4.547 4.547 0 0 0-.432-.88 1.704 1.704 0 0 0-.392-.43c-.162-.13-.33-.132-.51-.049-.024.012-.05.024-.074.038-.204.121-.4.251-.587.4a8.146 8.146 0 0 0-.9.842c-.35.377-.692.763-1.078 1.107m-4.202-2.776c.424.394.829.807 1.222 1.232.066.071.14.136.214.2.127.107.26.21.385.32.14.125.274.257.41.387.155.145.348.2.529.241.189-.017.348-.049.472-.184.142-.154.293-.299.44-.448a2.72 2.72 0 0 1 .358-.32.742.742 0 0 0 .192-.19 2.36 2.36 0 0 1 .298-.349c.264-.269.53-.536.795-.803.049-.05.095-.109.154-.14.14-.077.228-.199.325-.318a.334.334 0 0 0 .072-.273.578.578 0 0 0-.123-.26c-.087-.119-.175-.237-.256-.358-.09-.133-.17-.272-.257-.406a2.092 2.092 0 0 0-.152-.199 6.587 6.587 0 0 0-.21-.234.428.428 0 0 1-.123-.214.33.33 0 0 0-.12-.19c-.13-.118-.256-.237-.387-.352-.422-.365-.871-.698-1.271-1.088-.13-.126-.3-.14-.462-.049-.134.075-.26.162-.393.24-.29.17-.535.4-.79.618-.083.072-.148.164-.25.218-.128.068-.167.18-.137.318.008.041.02.081.028.122.01.055.022.11.022.165-.001.157-.065.233-.218.255-.07.01-.14.007-.21.01-.147.006-.264.055-.344.194a8.038 8.038 0 0 1-.475.737 3.063 3.063 0 0 0-.151.226.969.969 0 0 0-.088.165c-.061.167-.033.274.102.391.132.114.272.218.399.336m3.365 16.733c.048-.008.095-.034.142-.032.22.01.429-.052.639-.096.217-.045.439-.076.644-.17.33-.153.646-.33.946-.534a.987.987 0 0 0 .164-.13c.24-.249.51-.474.698-.773a.593.593 0 0 1 .095-.11c.25-.246.458-.525.644-.82.074-.118.14-.24.217-.357.183-.28.346-.572.49-.875.133-.277.273-.549.406-.826.1-.207.209-.412.285-.628.108-.308.194-.625.282-.94.038-.134.056-.273.088-.409.104-.434.172-.875.222-1.319a.747.747 0 0 1 .032-.163c.04-.11.01-.22.004-.33-.003-.053-.051-.085-.105-.08a.86.86 0 0 0-.123.023 2.97 2.97 0 0 0-.956.457c-.22.16-.442.317-.675.454a4.315 4.315 0 0 0-.752.561 1.897 1.897 0 0 0-.341.421.472.472 0 0 0-.075.295c.009.11.003.223-.008.333-.006.073-.06.107-.131.104a.952.952 0 0 0-.811.383 6.24 6.24 0 0 1-.291.355c-.281.322-.527.67-.714 1.053a5.104 5.104 0 0 1-.398.661c-.29.416-.522.856-.655 1.346-.136.5-.244 1.003-.235 1.525.007.146.007.293.022.438.015.14.115.207.25.183m-1.263-1.632-.166-.734c-.12-.523-.345-1-.627-1.453-.21-.338-.42-.675-.616-1.02a1.4 1.4 0 0 0-.522-.529.872.872 0 0 1-.225-.185.693.693 0 0 0-.12-.117.614.614 0 0 1-.253-.439.48.48 0 0 0-.163-.308c-.251-.23-.498-.467-.755-.692-.236-.207-.48-.404-.726-.599-.103-.082-.218-.149-.331-.218-.112-.069-.23-.13-.343-.199l-.897-.538c-.042-.025-.084-.05-.13-.068-.083-.035-.15 0-.175.09a.37.37 0 0 0-.014.082l-.064.624a.55.55 0 0 0 .045.286c.068.156.108.316.097.488-.003.034 0 .07.007.104.06.3.103.607.192.9.136.446.345.866.559 1.282.102.198.206.395.308.594.08.155.148.316.237.466.272.462.55.921.827 1.38.26.434.589.812.956 1.158.074.07.155.115.257.13.13.016.262.036.393.055.075.012.15.024.226.04a.19.19 0 0 1 .157.15c.016.06.033.12.047.181a.337.337 0 0 0 .188.24c.198.085.398.168.603.231.078.024.16.04.236.075.164.077.334.138.513.172.089.017.178.037.278.008a.408.408 0 0 0 .088-.324 1.763 1.763 0 0 1-.01-.272c.013-.315-.05-.625-.06-.938 0-.035-.01-.069-.017-.103m.295-2.57c.06.125.165.204.283.27.064.036.13.04.2.012.135-.054.227-.16.322-.26.014-.015.02-.039.022-.058.013-.13.023-.262.035-.393.003-.034.009-.067.016-.113.218-.019.262-.048.35-.229.018-.037.027-.079.043-.117.052-.122.099-.247.162-.362.117-.216.268-.407.43-.59.154-.172.31-.34.455-.52.197-.245.404-.48.655-.673a.284.284 0 0 0 .1-.128c.05-.172.132-.34.078-.53-.017-.058-.004-.125-.01-.187-.026-.276.009-.555-.056-.83-.066-.278-.124-.557-.228-.826a4.993 4.993 0 0 0-.442-.829c-.415-.665-.87-1.298-1.43-1.85-.084-.083-.17-.168-.264-.237-.194-.14-.414-.12-.594.036a1.705 1.705 0 0 1-.231.177 3.351 3.351 0 0 0-.691.571 4.8 4.8 0 0 0-.704 1.01c-.121.221-.223.45-.3.69-.076.24-.151.48-.214.721-.054.21-.092.422-.133.634-.023.116-.034.234-.057.35-.021.11-.051.217-.076.325a.663.663 0 0 0-.005.331c.044.17.084.338.126.507.064.26.208.473.399.651.226.21.433.435.619.68.072.094.156.18.232.27.076.091.154.181.222.277.219.308.418.627.567.975.035.083.08.163.119.244m3.398 6.263c.19-.192.377-.394.629-.513a.25.25 0 0 0 .052-.035.117.117 0 0 0 .04-.13c-.012-.046-.047-.069-.092-.073-.18-.015-.361-.045-.54-.04-.327.01-.655-.04-.98.027-.02.004-.041.002-.062.001-.185-.007-.36.042-.533.094a.458.458 0 0 0-.146.078 2.24 2.24 0 0 0-.605.79c-.094.193-.17.396-.268.59-.213.422-.44.84-.617 1.28-.012.03-.022.066-.073.056-.048-.12-.092-.246-.146-.366-.055-.12-.108-.244-.183-.352-.188-.268-.388-.528-.582-.792a3.976 3.976 0 0 1-.348-.546 1.148 1.148 0 0 0-.163-.24c-.185-.214-.418-.368-.661-.506a.54.54 0 0 0-.281-.07c-.278.004-.557.015-.833-.036-.034-.006-.07-.004-.104-.004l-.648-.003c-.035 0-.071 0-.104.007a.064.064 0 0 0-.05.08c.01.04.028.08.054.11.062.066.13.124.196.188.46.46.858.972 1.222 1.51.21.312.413.63.577.97.172.358.339.718.504 1.08.06.133.116.27.158.41.087.286.169.575.243.865.043.168.095.338.079.515-.017.175 0 .348.014.522.018.243.032.487.04.73.008.202.008.405.005.607a.572.572 0 0 0 .11.373c.024.031.033.073.046.105-.017.028-.023.053-.04.062-.101.064-.115.16-.122.27-.02.32-.042.64-.08.958-.048.394-.113.786-.17 1.18a.801.801 0 0 0-.008.145c.003.091.03.122.114.152.052.02.105.036.153.061.077.04.157.06.242.055.118-.007.236-.018.353-.03.07-.007.138-.024.207-.03.216-.019.43-.009.645.035.17.035.35.06.514-.01a.852.852 0 0 1 .33-.08c.05-.123.016-.226.003-.328-.026-.207-.066-.413-.08-.622a5.051 5.051 0 0 0-.101-.766 2.386 2.386 0 0 1-.058-.539c.002-.614-.003-1.228.01-1.84.007-.328.019-.656.13-.972.053-.152.017-.287-.133-.379a.468.468 0 0 1-.183-.196c-.068-.142-.018-.333.176-.376a.503.503 0 0 1 .145-.013c.092.005.14-.043.17-.123.013-.04.029-.079.04-.119.058-.187.112-.374.17-.56.142-.46.259-.929.466-1.365.152-.32.32-.635.482-.95.173-.34.41-.633.675-.902m-8.62 3.053a.702.702 0 0 1-.265.115c-.232.048-.464.098-.696.142a5.81 5.81 0 0 1-.371.053c-.111.014-.223.02-.333.034a.965.965 0 0 0-.302.076.82.82 0 0 1-.366.061c-.274 0-.54-.063-.807-.1a3.934 3.934 0 0 1-.667-.164c-.137-.045-.254-.054-.377.024-.063.041-.133.072-.202.11-.087-.044-.132-.125-.183-.198-.06-.085-.113-.176-.166-.266a.394.394 0 0 0-.182-.165c-.28-.128-.533-.302-.793-.462-.22-.136-.43-.285-.647-.424a1.284 1.284 0 0 1-.304-.284c-.18-.222-.378-.43-.526-.676a.461.461 0 0 0-.17-.153.885.885 0 0 1-.398-.626 1.453 1.453 0 0 0-.157-.536c-.047-.085-.085-.175-.125-.264a.514.514 0 0 1-.043-.279 1.448 1.448 0 0 0-.045-.433c-.032-.148-.02-.29-.006-.437.007-.074.046-.107.124-.117.083-.01.167-.017.25-.019.425-.013.85-.019 1.275-.037.39-.017.78-.023 1.17-.009.105.003.209.007.313.017a.512.512 0 0 1 .16.038c.106.045.144.122.128.236-.006.041-.02.081-.028.122-.07.314-.116.63-.112.953.002.22.046.43.148.625.038.074.073.15.109.226a.971.971 0 0 0 .399.416c.145.084.29.167.438.246.148.081.308.13.475.151.216.028.43.028.647-.002a1.28 1.28 0 0 0 1.064-.965c.013-.052.029-.103.047-.168.266.328.507.65.718.995a.435.435 0 0 1 .056.112.403.403 0 0 0 .119.192c.039.037.087.087.092.135.014.14.095.24.162.351.065.107.122.22.18.33.123.226.245.454.313.705.045.167.027.218-.115.32m2.88 2.75a.347.347 0 0 0-.11-.195c-.114-.097-.181-.229-.257-.354a.288.288 0 0 1-.032-.22.655.655 0 0 0-.147-.603c-.045-.053-.082-.113-.12-.17-.041-.064-.092-.123-.1-.192.015-.024.019-.04.03-.046.118-.072.128-.172.082-.29-.05-.13-.095-.262-.147-.392-.317-.782-.637-1.563-.952-2.346a7.718 7.718 0 0 0-.557-1.123 20.618 20.618 0 0 0-.517-.81 4.327 4.327 0 0 0-.895-.99c-.247-.195-.5-.38-.754-.564a5.634 5.634 0 0 0-1.796-.874c-.383-.105-.767-.208-1.15-.315-.29-.08-.581-.145-.885-.136-.062.001-.125-.008-.188-.012-.32-.019-.64-.032-.96-.058-.214-.018-.416.001-.598.125-.011.007-.027.007-.077.018-.067-.109-.176-.14-.301-.138-.04 0-.08-.025-.12-.037-.032-.01-.064-.025-.098-.028-.14-.012-.278-.019-.418-.029a.29.29 0 0 0-.196.055 2.208 2.208 0 0 1-.267.162c-.106.054-.218.062-.314-.02-.186-.16-.402-.206-.641-.205-.348.002-.697-.012-1.045-.019-.14-.003-.28-.01-.418-.007-.23.006-.46.017-.69.027-.145.007-.291.017-.437.025-.048.002-.101.016-.144.003-.193-.06-.39 0-.582-.024-.045-.006-.081.022-.102.06-.035.063-.054.128-.023.2.102.232.146.478.18.727.01.07.03.136.052.202.066.198.137.395.203.593.058.172.112.345.166.518a.287.287 0 0 0 .1.155c.083.062.168.093.273.07.177-.039.355-.07.533-.107l.388-.08c.082-.019.163-.038.245-.055.132-.027.276.037.323.17.039.111.089.22.129.33.093.255.148.524.28.764.078.141.159.28.232.421.08.155.169.308.223.472.04.125.078.252.116.378.028.091.068.166.152.215.056.033.1.08.11.147a.47.47 0 0 0 .12.238.346.346 0 0 1 .076.147.431.431 0 0 0 .165.256c.21.182.365.4.376.695.003.073.002.14-.037.2-.071.112-.146.221-.22.33a.206.206 0 0 1-.138.087c-.134.026-.213.113-.223.243-.013.165-.104.283-.198.405-.268.35-.535.697-.796 1.05-.116.157-.211.328-.328.484a.478.478 0 0 0-.078.377c.014.096.07.15.164.164a.385.385 0 0 0 .264-.037c.04-.024.077-.066.13-.037.006.006.013.012.013.018l-.01.122c-.018.193 0 .225.172.312l.076.035c.238.098.477.195.715.295.128.054.256.11.382.168a.767.767 0 0 0 .342.08c.104-.002.178-.053.21-.144.037-.104.062-.214.078-.324a.338.338 0 0 0-.071-.256 6.838 6.838 0 0 1-.171-.238c-.051-.074-.034-.13.05-.163a.495.495 0 0 1 .12-.032c.069-.01.139-.017.209-.02a.286.286 0 0 0 .275-.187c.04-.096.074-.195.119-.289.152-.314.318-.62.509-.912.114-.174.276-.19.443-.053.064.053.126.111.198.153.253.147.506.297.78.4.23.083.447.188.644.335a.943.943 0 0 0 .313.166.542.542 0 0 1 .278.212.563.563 0 0 1 .13.428c-.024.193-.014.39-.09.575-.016.044-.017.095-.023.144-.05.373-.093.746-.181 1.112a.716.716 0 0 0-.018.166.677.677 0 0 1-.066.304.615.615 0 0 0-.047.328.331.331 0 0 0 .31.284c.04 0 .08-.016.118-.033.037-.016.069-.042.11-.068.027.032.057.054.068.083.045.116.137.131.24.116.053-.008.105-.029.156-.044.075.063.128.143.23.146.349.012.697.036 1.045.036.198 0 .31-.12.316-.319.006-.25.002-.502-.016-.752-.016-.235-.175-.377-.408-.394-.05-.003-.1.002-.137-.064l.037-.207c.102-.038.192-.073.284-.105.15-.053.223-.158.226-.316l.023-1.067c0-.054.006-.108.01-.166.119-.047.23-.078.349-.097.17-.027.34-.066.512-.097.199-.036.397-.08.597-.099.16-.016.316-.042.47-.087.18-.053.365-.09.549-.126.16-.032.23.011.292.164.029.071.053.144.07.22.116.48.249.957.29 1.453.008.094.056.152.14.19a.51.51 0 0 0 .427-.019c.114-.05.22-.12.332-.177.035-.018.079-.042.115-.036.156.027.304-.02.456-.034.17-.015.299-.108.426-.206a.223.223 0 0 0 .089-.182c-.001-.069-.002-.14-.02-.207-.042-.176-.096-.349-.14-.525m16.007-6.728c-.03.062-.04.133-.058.2a.96.96 0 0 1-.12.31.373.373 0 0 0-.046.094c-.118.345-.3.66-.476.975-.081.146-.171.287-.257.43-.017.03-.046.063-.045.093.007.127-.09.216-.114.332-.016.08-.074.128-.16.145-.153.03-.245.152-.351.25-.027.024-.035.074-.04.114-.01.082-.056.124-.13.143a.562.562 0 0 0-.28.176c-.361.411-.815.693-1.305.923-.126.06-.251.12-.378.178-.044.02-.09.047-.136.048-.164.006-.311.073-.465.116-.175.05-.35.095-.535.058-.06-.012-.125 0-.187.006-.153.016-.304.042-.457.052a4.786 4.786 0 0 1-.522.01c-.134-.007-.232.027-.28.16a.269.269 0 0 1-.026.057c-.073.122-.168.128-.24.01-.034-.059-.054-.128-.074-.194a.182.182 0 0 0-.12-.133 1.028 1.028 0 0 0-.263-.057 23.736 23.736 0 0 1-.748-.082c-.097-.01-.191-.024-.288.008-.096.032-.168-.02-.167-.12 0-.154.012-.308.07-.452.08-.2.165-.4.256-.596.1-.213.194-.43.333-.623a.313.313 0 0 0 .047-.178.707.707 0 0 1 .1-.358 16.7 16.7 0 0 1 .353-.64c.116-.198.242-.39.365-.583.013-.022.034-.038.08-.087.02.133.039.222.046.311.023.283.14.51.386.658.194.116.4.194.632.192a2.864 2.864 0 0 0 1.14-.225c.07-.03.14-.065.202-.109.153-.11.305-.22.45-.34.16-.13.23-.315.25-.514a1.363 1.363 0 0 0-.357-1.098.89.89 0 0 1-.17-.296c.035-.02.062-.038.092-.052.114-.052.23-.098.342-.154.088-.045.177-.07.275-.092.196-.04.39-.1.58-.163a.473.473 0 0 1 .204-.032c.208.022.422.018.622.07.18.048.357.047.537.055a.745.745 0 0 1 .315.105c.119.064.24.106.378.1.038-.003.078.02.117.032.045.015.088.043.134.047.08.006.13.046.162.113a.417.417 0 0 0 .15.17c.04.028.074.063.109.098.099.097.133.205.068.34m4.84-3.12c-.103.002-.21-.006-.31.015-.235.05-.471.04-.707.021a1.865 1.865 0 0 0-.5.03 3.96 3.96 0 0 1-1.165.068c-.187-.019-.376-.017-.564-.027a.598.598 0 0 0-.357.071c-.121-.084-.245-.083-.373-.082-.411.006-.823.01-1.234.007a9.968 9.968 0 0 1-.67-.024c-.48-.035-.96-.048-1.441-.054-.111-.002-.224.01-.334-.003a1.157 1.157 0 0 0-.593.082.552.552 0 0 0-.221.152c-.123.142-.253.278-.381.416a.307.307 0 0 1-.047.041c-.06.045-.117.051-.171 0a1.23 1.23 0 0 1-.147-.174c-.124-.166-.3-.258-.501-.208a8.389 8.389 0 0 0-.895.285.298.298 0 0 0-.115.085.86.86 0 0 1-.233.174c-.108.063-.208.14-.314.205-.19.116-.366.257-.6.282-.03.004-.061.03-.086.05-.042.036-.078.08-.12.117-.048.044-.085.093-.08.162.007.083-.027.147-.076.21-.055.071-.103.15-.16.22-.061.075-.122.154-.197.214a1.35 1.35 0 0 0-.29.328c-.104.164-.21.33-.316.492-.15.227-.31.447-.448.68-.143.24-.267.49-.394.738-.115.224-.222.451-.332.676a.37.37 0 0 0-.033.262.91.91 0 0 1 .015.29c-.011.094-.011.175.045.258.078.116.045.228-.042.324a.78.78 0 0 1-.158.134c-.13.081-.263.155-.4.235a8.116 8.116 0 0 0-.262.964c-.1.457-.2.913-.297 1.37-.094.442-.186.886-.277 1.33a.66.66 0 0 0-.01.166c.01.205.107.321.306.373.02.005.04.005.06.01.258.066.514.132.77.2.156.04.31.082.473.076.25-.009.385-.132.404-.383.03-.425.083-.847.177-1.263.06-.264.06-.267.349-.269.049.038.092.09.147.111.17.07.35.09.534.068.08-.01.16-.062.239-.057.079.005.15.072.23.09.252.051.503.114.763.093.112-.009.22-.013.325.048.044.026.108.02.163.026l.139.017c.093.171.137.34.13.528-.021.684-.011 1.367.075 2.048.017.131.02.264.024.397.005.132-.001.265.004.397a.821.821 0 0 0 .034.204.224.224 0 0 0 .216.168c.048.003.095-.007.136-.01.039-.056.067-.105.104-.145.048-.054.112-.066.168-.02.147.118.31.112.477.073.312-.07.623-.148.935-.222.04-.01.083-.014.123-.024a.228.228 0 0 0 .154-.13.667.667 0 0 0 .062-.427c-.052-.26-.11-.519-.16-.779-.02-.095-.026-.192-.043-.288-.026-.143-.057-.285-.083-.416-.08-.036-.144-.06-.203-.094-.047-.028-.05-.089-.013-.127.019-.02.039-.042.063-.055.088-.046.103-.123.099-.212-.003-.07-.003-.14.006-.209a.826.826 0 0 0-.05-.432c-.075-.175-.02-.319.113-.429.144-.119.274-.256.435-.353.094-.056.168-.148.292-.147.03 0 .06-.033.09-.05.067-.037.132-.079.2-.11.379-.179.756-.356 1.08-.627.129-.106.289-.08.384.052.02.028.037.06.054.09.202.367.379.745.516 1.142.045.132.104.26.154.39a.324.324 0 0 0 .223.202c.033.01.068.017.099.031.069.033.14.063.202.106a.19.19 0 0 1 .079.221c-.013.047-.033.092-.044.14-.031.135-.07.271-.054.412.013.13.087.201.218.208a.368.368 0 0 0 .124-.009c.14-.04.279-.086.418-.13a.846.846 0 0 0 .493-.428c.032-.062.058-.127.095-.186a.352.352 0 0 0 .062-.237.35.35 0 0 1 .118-.299c.08-.079.168-.082.27-.066.082.013.168.011.24-.045a.464.464 0 0 0 .19-.335.584.584 0 0 0-.11-.394c-.052-.075-.111-.144-.162-.219-.068-.098-.14-.19-.257-.242-.012-.134-.087-.232-.166-.33a21.269 21.269 0 0 1-.35-.445c-.06-.078-.12-.15-.228-.168-.067-.01-.118-.059-.112-.13.01-.124-.052-.212-.12-.302a9.668 9.668 0 0 1-.3-.428c-.037-.057-.078-.13-.071-.19.023-.192.046-.38.174-.549.155-.205.278-.434.414-.653.05-.079.087-.166.062-.257-.03-.11.033-.187.075-.274.043-.09.1-.168.202-.199.067-.02.102-.068.132-.125l.078-.148c.148-.277.296-.553.44-.83a.537.537 0 0 1 .314-.26c.196-.074.399-.122.603-.166a.571.571 0 0 1 .247-.004c.222.05.444.025.665-.01a.266.266 0 0 0 .189-.12.888.888 0 0 0 .1-.205c.079-.239.149-.48.22-.72.059-.194.118-.387.17-.582.058-.216.106-.434.163-.649.045-.169.103-.334.143-.503.02-.086.02-.18.016-.269-.003-.065-.068-.12-.127-.119m.277-30.03c-.046-.084-.132-.096-.215-.045-.13.08-.23.202-.375.26-.012.005-.021.018-.031.028-.09.098-.181.194-.27.293-.151.172-.3.347-.452.52a.347.347 0 0 1-.094.081c-.134.07-.23.181-.322.294-.115.14-.227.284-.35.417-.262.287-.483.615-.82.828-.017.011-.03.03-.045.042-.5.434-.988.883-1.527 1.27-.051.036-.1.077-.147.118a.83.83 0 0 0-.24.312c-.076.184-.217.26-.398.281a.396.396 0 0 0-.211.08c-.054.044-.115.081-.162.131-.15.157-.3.313-.436.48-.051.06-.071.148-.102.224-.016.04-.017.086-.04.117-.156.206-.33.381-.62.35-.042-.004-.084.001-.126 0a.467.467 0 0 0-.291.096c-.466.331-.935.66-1.404.985a8.075 8.075 0 0 1-.454.3c-.512.312-1.025.622-1.54.93-.33.196-.654.402-.996.574a4.52 4.52 0 0 0-1.16.81c-.01.01-.02.02-.031.027-.11.075-.158.172-.124.306.009.032 0 .07-.003.104a.4.4 0 0 0 .076.275c.125.193.245.39.369.583.045.07.088.143.143.205.168.19.292.407.414.627.06.11.13.215.188.326a.404.404 0 0 0 .3.234c.1.02.177.075.229.166.034.06.07.12.113.175a.211.211 0 0 1 .03.233c-.047.108-.03.216.01.326.054.144.117.282.183.42.208.434.413.87.563 1.328.04.125.097.245.146.368.08.2.16.401.242.601.028.071.047.148.085.213.07.123.114.255.147.39.103.42.207.838.3 1.26.06.271.114.545.154.82.049.344.082.692.12 1.038.006.048.003.097.003.145 0 .077-.005.153-.001.23.014.305.034.612.045.918a.496.496 0 0 0 .077.256c.033.053.074.102.105.156.069.121.14.241.198.368.054.12.013.216-.101.282-.024.014-.051.023-.076.034a.501.501 0 0 0-.328.444c-.02.172-.034.346-.07.516-.02.101-.064.196-.053.304.002.023-.016.054-.034.074-.054.063-.061.137-.063.215a.33.33 0 0 1-.033.14c-.041.076-.027.146.002.22.037.09.07.18.106.271a.87.87 0 0 1-.272.293.297.297 0 0 0-.104.15c-.144.4-.286.801-.441 1.197a6.919 6.919 0 0 1-.374.794c-.147.27-.364.496-.463.792-.004.013-.017.022-.023.035-.08.165-.2.302-.31.445-.231.296-.453.6-.662.912a1.841 1.841 0 0 0-.168.335.289.289 0 0 0 .08.342.173.173 0 0 0 .11.043.281.281 0 0 0 .134-.05c.162-.109.319-.225.479-.336.057-.04.114-.08.177-.109a.495.495 0 0 0 .25-.21c.02-.036.054-.064.085-.09.094-.083.186-.169.286-.243.109-.08.178-.218.332-.237.017-.002.034-.023.048-.038l.442-.499c.09-.102.135-.245.275-.305.014-.006.016-.037.028-.054.024-.033.045-.072.076-.096a.278.278 0 0 0 .108-.172.555.555 0 0 1 .067-.152c.017-.028.045-.066.072-.069.108-.013.145-.097.193-.173.088-.142.174-.286.269-.423.07-.102.163-.189.232-.292.104-.155.177-.328.306-.469.043-.048.042-.133.076-.192.033-.058.086-.104.13-.156.005-.005.005-.013.008-.019.058-.133.116-.267.175-.399.01-.024.03-.044.05-.072.105.033.2.074.302.093.173.033.339.085.493.168.164.088.338.07.51.062a.173.173 0 0 0 .078-.029c.16-.1.306-.215.432-.358.086-.096.123-.217.19-.319.104-.155.202-.313.3-.47.082-.129.106-.289.225-.394.043-.145.047-.3.125-.435.003-.006.002-.014.002-.02l-.02-.415c-.115-.04-.213-.108-.34-.099-.124.008-.25.01-.366-.058-.04-.022-.096-.012-.144-.019-.2-.026-.402-.04-.598-.084-.13-.028-.257-.056-.391-.054a.513.513 0 0 1-.29-.105.194.194 0 0 1-.096-.194.583.583 0 0 1 .017-.103c.114-.44.179-.888.219-1.34.022-.248.19-.403.437-.426.097-.009.196-.01.29-.034.266-.063.535-.094.808-.096.147 0 .293-.01.44-.004.123.005.232-.039.342-.08a.129.129 0 0 0 .065-.05c.054-.089.11-.177.15-.273.048-.122.078-.252.12-.378.02-.065.042-.133.078-.19a.304.304 0 0 0 .03-.26c-.012-.046-.026-.09-.037-.126.015-.018.018-.025.024-.028.13-.066.237-.149.212-.319-.001-.006-.001-.015.003-.02.108-.153.115-.336.157-.51.022-.09.045-.174.027-.264-.015-.08-.013-.15.052-.212.065-.06.063-.138.034-.213-.025-.064-.062-.123-.095-.188a36.078 36.078 0 0 0-.19-.025.487.487 0 0 0-.378.081.56.56 0 0 1-.181.101c-.174.047-.34.127-.525.134a.494.494 0 0 0-.29.104c-.065.05-.14.093-.231.075a1.006 1.006 0 0 0-.394.018c-.137.026-.274.05-.412.07a1.326 1.326 0 0 1-.208.017c-.12 0-.182-.045-.214-.159a.63.63 0 0 1-.018-.144c-.002-.119 0-.237-.002-.356-.008-.41-.017-.823-.103-1.228-.014-.06-.02-.124-.03-.186a.341.341 0 0 1 .123-.335c.117-.103.243-.182.39-.235.19-.069.377-.146.564-.223.252-.103.499-.216.753-.312.272-.102.55-.192.822-.299.196-.077.374-.183.558-.279.019-.01.044-.02.049-.037.045-.13.12-.247.18-.37.006-.013.005-.029.004-.043-.01-.119.015-.234.036-.35.018-.096.04-.19.059-.285.019-.102.017-.207.023-.31.003-.064-.005-.127.004-.188.024-.167.04-.332.02-.5a.243.243 0 0 1 .01-.123.569.569 0 0 0 .02-.329c-.011-.06-.004-.125-.01-.187-.01-.13-.017-.263-.036-.393a.22.22 0 0 0-.07-.125c-.144-.118-.217-.203-.427-.095a.326.326 0 0 1-.08.03c-.096.017-.156.081-.207.16-.034.052-.062.115-.11.151-.178.131-.325.306-.542.385-.05.018-.095.056-.14.09-.262.196-.521.396-.784.591-.118.087-.236.176-.365.243-.16.083-.34.131-.497.217-.19.105-.36.08-.53-.032a.429.429 0 0 0-.036-.019.21.21 0 0 1-.134-.17.567.567 0 0 0-.144-.32c-.086-.087-.138-.192-.196-.295-.122-.219-.243-.44-.374-.653a1.607 1.607 0 0 1-.174-.376c-.036-.117-.023-.203.059-.284.05-.049.1-.096.154-.14.08-.066.165-.129.247-.192.039-.03.077-.06.117-.087.12-.083.242-.164.363-.246.093-.062.183-.129.279-.185.276-.162.553-.323.834-.477.488-.27.946-.59 1.425-.874.276-.164.555-.322.838-.472.474-.25.953-.494 1.43-.738a.365.365 0 0 0 .188-.188c.027-.064.062-.126.136-.148.206.077.207.08.412-.019.3-.145.612-.273.876-.485a.261.261 0 0 1 .072-.042c.098-.033.139-.109.16-.202.053-.217.112-.432.156-.65.063-.322.115-.646.174-.968.043-.24.09-.479.132-.72.055-.323.108-.646.158-.97.049-.317.104-.633.138-.952.033-.318.027-.64.088-.957a.66.66 0 0 0-.078-.503M.104 1.083c.009.16.027.32.037.48.02.327.1.648.09.978 0 .034.006.07.01.104l.09.705c.023.186.042.373.064.56l.05.414c.007.05.01.098.019.146.054.287.107.575.166.862.04.2.152.353.326.465.087.056.166.126.243.196.079.074.129.186.26.19.01.001.024.014.034.024.168.155.358.284.538.424.132.103.255.133.4.044.009-.005.027.002.04.004.01.008.024.015.033.025.088.091.156.195.21.31.033.071.08.148.164.143.129-.007.222.07.329.11a.188.188 0 0 1 .095.075c.086.148.228.226.372.295.41.197.78.46 1.158.708.165.108.33.202.518.265a.945.945 0 0 1 .385.236.465.465 0 0 0 .207.132.66.66 0 0 1 .266.156c.146.118.296.232.449.342.124.09.256.168.383.253.076.05.143.116.225.152.258.112.418.34.642.512-.11.175-.172.36-.28.524a4.764 4.764 0 0 0-.234.42c-.165.322-.304.657-.503.962-.07.105-.12.221-.18.332-.015.031-.028.063-.045.093a.14.14 0 0 1-.14.075c-.034-.003-.068-.013-.103-.013-.091-.002-.164-.032-.203-.119-.03-.064-.088-.084-.145-.112-.144-.07-.29-.137-.426-.22-.141-.089-.272-.195-.408-.293-.112-.082-.225-.163-.337-.246-.166-.122-.34-.194-.542-.089-.005.002-.014-.003-.031-.007a.316.316 0 0 1-.11-.208.46.46 0 0 0-.168-.324c-.011-.008-.017-.022-.025-.033A.282.282 0 0 0 3.803 11a.22.22 0 0 1-.2-.13.159.159 0 0 0-.152-.09c-.082 0-.146-.043-.202-.097a.59.59 0 0 0-.25-.146.74.74 0 0 1-.191-.084c-.118-.076-.248-.083-.381-.088a.277.277 0 0 0-.222.097.324.324 0 0 0-.095.204c-.02.256-.042.512-.06.77-.003.047-.007.104.015.143.07.126.06.252.03.384-.005.027 0 .056-.001.084-.004.14.03.275.046.412.029.277.098.55.08.831-.004.07.028.13.094.148.12.035.207.11.286.2a.82.82 0 0 0 .124.111c.033.024.07.054.108.057a.455.455 0 0 1 .302.124c.024.022.06.031.094.042.198.067.39.145.568.261.092.061.196.107.298.151.333.142.669.277 1 .42.276.12.546.25.823.364.1.042.16.098.19.201.023.078.082.144.072.236-.023.2-.041.401-.061.602-.002.014-.004.028-.01.04-.093.178-.048.367-.041.551.002.063.015.122-.02.181-.053.09.017.178.006.26-.012.085-.073.164-.05.26.01.04.029.08.033.12.017.173-.097.284-.262.255a44.308 44.308 0 0 1-.616-.113.51.51 0 0 0-.287.005.216.216 0 0 1-.263-.072c-.05-.065-.126-.088-.2-.109-.172-.05-.35-.093-.523-.139-.102-.027-.202-.055-.31-.05a.252.252 0 0 1-.12-.028 3.346 3.346 0 0 1-.31-.172c-.174-.114-.172-.117-.384-.077-.027.005-.053.013-.08.02-.026.061-.04.125-.077.173-.09.12-.082.245-.046.378.014.053.019.11.029.163.007.041.006.087.025.121.072.133.08.28.105.424.01.054.01.111.026.165.1.364.23.715.442 1.033.08.121.172.24.224.374.05.13.13.226.222.321a.625.625 0 0 0 .267.157c.11.037.205.017.282-.074.04-.048.082-.096.129-.138.035-.03.079-.05.127-.08.039.041.072.075.102.111.035.043.066.09.103.13a.182.182 0 0 0 .149.063l.375-.018c.049-.002.098-.005.145.003.213.034.426.071.638.107a.258.258 0 0 1 .196.14.602.602 0 0 1 .064.195c.022.13.002.267.086.383.015.02.014.054.01.081-.012.108.024.206.053.307.025.086.072.177.063.26-.016.158.052.283.108.417.02.051.045.103.049.157.007.1.036.188.086.275.059.101.025.187-.086.204-.151.024-.307.051-.456.035a2 2 0 0 0-.394-.01c-.068.005-.138-.009-.207-.014-.104-.006-.21-.028-.311.013a.302.302 0 0 1-.243.003c-.12-.05-.22.012-.315.06a.185.185 0 0 0-.087.134c-.004.151-.017.305.064.447.094.163.183.328.268.496.146.286.31.561.5.82.14.191.292.374.438.56.099.126.2.16.348.098.147-.062.289-.135.45-.159.026-.004.05-.022.075-.035a.662.662 0 0 1 .238-.075.895.895 0 0 0 .203-.048c.129-.049.259-.038.393-.02.026.034.054.065.075.101.13.222.26.445.386.67.226.402.49.778.745 1.161.023.035.05.066.076.1.124.16.255.314.368.481.152.225.365.383.578.54.096.07.186.143.27.226.143.143.282.29.426.431.044.044.098.078.148.115.045.034.09.065.134.1.212.172.448.307.683.442.186.106.388.183.557.323.126.105.282.111.438.101.079-.004.126-.054.146-.128.027-.098-.008-.17-.08-.242a11.035 11.035 0 0 1-1.502-1.926c-.153-.249-.292-.507-.448-.755-.22-.349-.445-.693-.637-1.057a.97.97 0 0 0-.171-.235c-.163-.159-.304-.325-.31-.569 0-.033-.02-.066-.03-.099-.012-.047-.034-.095-.033-.142.005-.188-.07-.353-.136-.522-.136-.343-.282-.683-.383-1.04-.051-.18-.121-.357-.164-.539a4.129 4.129 0 0 1-.13-1.14c.005-.082-.012-.166-.02-.249-.012-.125-.03-.249-.037-.374a.301.301 0 0 0-.075-.19c-.04-.046-.075-.098-.12-.157.029-.035.04-.056.056-.066.1-.057.118-.146.109-.25a9.365 9.365 0 0 1-.022-.377c-.004-.104.006-.21-.005-.313-.015-.16-.04-.322-.213-.403-.025-.01-.045-.033-.065-.053-.092-.096-.115-.21-.046-.323.043-.07.106-.129.166-.186.05-.048.108-.087.163-.129a.327.327 0 0 0 .132-.23c.02-.179.044-.359.062-.539.005-.055-.006-.11-.006-.167 0-.04.004-.08.009-.12.007-.048.022-.094.027-.142.014-.13.088-.249.069-.386-.003-.017.02-.036.027-.055.016-.045.037-.09.043-.138a2.38 2.38 0 0 1 .18-.639c.295-.693.6-1.382.87-2.084a7.665 7.665 0 0 1 1.078-1.928c.133-.174.224-.369.299-.57a.365.365 0 0 0-.028-.343c-.066-.097-.055-.182.003-.27.034-.052.07-.102.104-.149.088-.006.164-.014.24-.017a.465.465 0 0 0 .374-.2c.067-.089.137-.174.218-.25a.443.443 0 0 0 .007-.623 2.663 2.663 0 0 0-.402-.333c-.68-.452-1.348-.918-2.044-1.343a9.998 9.998 0 0 1-.266-.167.227.227 0 0 0-.217-.026c-.064.023-.135.024-.204.031-.07.006-.12-.027-.157-.084-.056-.089-.13-.17-.166-.266-.051-.136-.146-.212-.264-.28a11.157 11.157 0 0 1-1.116-.738c-.05-.037-.102-.075-.142-.122-.097-.117-.214-.174-.367-.143-.012.002-.026-.008-.058-.018-.028-.047-.067-.104-.097-.166a.645.645 0 0 0-.19-.22c-.52-.42-1.04-.84-1.56-1.262-.081-.066-.153-.142-.235-.208-.228-.182-.464-.356-.687-.544-.272-.23-.531-.474-.8-.707-.21-.183-.39-.399-.631-.546-.034-.02-.061-.056-.087-.088-.27-.329-.54-.658-.807-.989a2.617 2.617 0 0 0-.317-.332c-.115-.1-.237-.202-.323-.325C.845.644.619.48.424.283.352.211.258.217.168.246.145.253.115.278.11.3.083.442.034.588.067.732c.028.117.03.233.037.351" fill="#CBB687" fill-rule="evenodd"/>
</svg>
